<?xml version="1.0" encoding="utf-8"?>
<!-- Generator: Adobe Illustrator 27.0.1, SVG Export Plug-In . SVG Version: 6.00 Build 0)  -->
<svg version="1.1" id="Layer_1" xmlns="http://www.w3.org/2000/svg" xmlns:xlink="http://www.w3.org/1999/xlink" x="0px" y="0px"
	 viewBox="0 0 261 339" style="enable-background:new 0 0 261 339;" xml:space="preserve">
<style type="text/css">
	.st0{fill:#231F20;}
	.st1{fill:#F9D94A;}
	.st2{fill:#FBB040;}
</style>
<path class="st0" d="M173.7,258.4V251c-0.2-2.5-2.3-4.5-4.8-4.4h-84c-2.5-0.1-4.7,1.8-4.8,4.4v7.4c0,2.1,1.5,4,3.6,4.4
	c-2.1,0.4-3.6,2.2-3.6,4.4v7.4c0,2.1,1.5,4,3.6,4.4c-2.1,0.4-3.6,2.2-3.6,4.4v7.4c0.2,2.5,2.3,4.5,4.8,4.4h84
	c2.5,0.1,4.7-1.8,4.8-4.4v-7.5c0-2.1-1.5-4-3.6-4.4c2.1-0.4,3.6-2.2,3.6-4.4v-7.4c0-2.1-1.5-4-3.6-4.4
	C172.2,262.4,173.8,260.6,173.7,258.4z M133.7,281.1c0,1.4-1.1,2.5-2.4,2.5H88.9c-1.4,0-2.4-1.1-2.4-2.5v-4.4c0-1.4,1.1-2.5,2.4-2.5
	h42.4c1.4,0,2.4,1.1,2.4,2.5L133.7,281.1z M160.9,264.4c0,1.4-1.7,2.5-3.9,2.5H90.3c-2.1,0-3.9-1.1-3.9-2.5v-4.4
	c0-1.4,1.7-2.5,3.9-2.5h66.8c2.1,0,3.9,1.1,3.9,2.5V264.4z"/>
<path class="st0" d="M126.9,322.3c21.8,0,39.6-11.2,39.6-24.9H87.3C87.3,311.2,105,322.3,126.9,322.3z"/>
<g id="Bright_Left">
	<path class="st1" d="M117.6,244.4H86.9c-2.4,0-4.5-1.5-5.1-3.8c-1.6-6.8-2.1-13.9-1.4-20.9c0.4-8.7,0.7-15.9-3.7-22.3
		c-9.2-13.1-26.1-44.2-27.7-47.3c-1.7-1.7-8.7-6.6-13.3-9.8c-3.8-3-7.6-5.4-10.4-7.4c-1.4-1-2.1-2.6-2.1-4.4
		c0.1-2.1,1.1-4.1,2.7-5.4l3.1-2.9c2.1-2,4.8-4.4,7-6.7c1.4-1.3,2.7-2.9,3.6-4.7c0.8-16.9,5.8-33.4,14.6-47.9
		c6.7-10.5,15.8-19.3,26.6-25.6c11.2-6.5,23.8-10.4,36.8-11.3c2.9-0.1,5.4,2.2,5.5,5.2c0.1,2.9-2.2,5.4-5.2,5.5
		c-11.4,1-22.4,4.5-32.2,10.3c-21.4,12.7-33.4,34.5-35.6,64.8c-0.4,5.4-6.1,11.1-13.5,17.9l5.2,3.7c12.8,9,15.5,11.1,16.6,13.5
		c1.1,2.4,18.3,33.8,27,46.3c6.5,9.4,6,19.7,5.7,28.9c-0.4,4.5-0.4,9.1,0,13.7h26.4c2.9,0,5.3,2.4,5.3,5.3s-2.4,5.3-5.3,5.3
		L117.6,244.4z"/>
</g>
<g id="Bright_Right">
	<path class="st1" d="M167.2,244.4h-30.7c-2.9,0-5.3-2.4-5.3-5.3c0-2.9,2.4-5.3,5.3-5.3l0,0h26.4c0.4-4.5,0.4-9.1,0-13.7
		c-0.4-9.2-0.9-19.5,5.7-28.9c8.7-12.4,25.4-43.5,27-46.3c1.6-2.8,3.8-4.4,16.6-13.5l5.2-3.7c-7.4-6.8-13.1-12.5-13.5-17.9
		c-2.2-30.5-14.3-52.2-35.9-65c-9.7-5.7-20.5-9.1-31.7-10c-2.9-0.1-5.2-2.6-5.1-5.5s2.6-5.2,5.5-5.1c0,0,0,0,0,0
		c13,0.9,25.6,4.9,36.9,11.5c10.8,6.3,19.9,15,26.6,25.6c8.8,14.5,13.8,30.9,14.6,47.9c0.9,1.7,2.1,3.3,3.6,4.7
		c2.2,2.4,4.8,4.7,7,6.7l3.1,2.9c1.6,1.3,2.6,3.2,2.7,5.3c-0.1,1.6-0.8,3.1-2.1,4.1c-2.7,2.1-6.4,4.7-10.4,7.5
		c-4.7,3.3-11.7,8.2-13.3,9.8c-1.7,3.2-18.5,34.2-27.7,47.3c-4.4,6.4-4.1,13.8-3.7,22.3c0.7,7,0.2,14.1-1.4,20.9
		C171.7,242.7,169.6,244.3,167.2,244.4z"/>
</g>
<path class="st0" d="M160.1,91.3h-2.7V77.7H126c-0.6,0-1.1-0.4-1.3-1l-1.2-4.8l-5.1,14.6c-0.2,0.7-1,1.1-1.7,0.9
	c-0.4-0.1-0.7-0.5-0.9-0.9l-4.9-19.8l-3,10.1c-0.2,0.6-0.7,0.9-1.3,1H93.9v9h-2.7V76.2c0-0.7,0.6-1.3,1.3-1.3h0h13.1l4.4-13.7
	c0.2-0.7,1-1.1,1.7-0.9c0.4,0.1,0.7,0.5,0.9,0.9l5,19.9l4.9-14.4c0.2-0.7,1-1.1,1.7-0.9c0.4,0.1,0.7,0.5,0.9,0.9l2,8.2h31.7
	c0.7,0,1.3,0.6,1.3,1.3L160.1,91.3z"/>
<g id="Input_Leg">
	<path class="st0" d="M108.5,233.7h-2.7v-45.9H92.8c-0.7,0-1.3-0.6-1.3-1.3l0,0v-29.3h2.7V185h13.1c0.7,0,1.3,0.6,1.3,1.3l0,0
		L108.5,233.7z"/>
</g>
<g id="Input">
	<rect x="84.6" y="84" class="st2" width="15.8" height="74.1"/>
</g>
<g id="Output_Leg">
	<path class="st0" d="M142.2,233.7h-2.7v-47.2c0-0.7,0.6-1.3,1.3-1.3l0,0h17.6v-39.9h2.7v41.3c0,0.7-0.6,1.3-1.3,1.3l0,0h-17.6
		V233.7z"/>
</g>
<g id="Output">
	<path class="st0" d="M147,84.3c-20.3-0.4-37,15.7-37.4,36c-0.4,20.3,15.7,37,36,37.4s37-15.7,37.4-36c0-0.2,0-0.5,0-0.7
		C183.2,101,167.1,84.5,147,84.3C147,84.3,147,84.3,147,84.3z M147,145.2c-13.3,0.3-24.4-10.3-24.7-23.6
		c-0.3-13.3,10.3-24.4,23.6-24.7c13.3-0.3,24.4,10.3,24.7,23.6c0,0.2,0,0.3,0,0.5C170.8,134.2,160.2,145.1,147,145.2
		C147,145.2,147,145.2,147,145.2L147,145.2z"/>
</g>
</svg>
